<svg aria-hidden="true" style="position: absolute; width: 0; height: 0; overflow: hidden;" version="1.1" xmlns="http://www.w3.org/2000/svg" xmlns:xlink="http://www.w3.org/1999/xlink">
<defs>
<symbol id="compass" viewBox="0 0 32 32">
<path d="M16 0c-8.836 0-16 7.164-16 16s7.164 16 16 16 16-7.164 16-16c-0.010-8.832-7.168-15.99-16-16zM16 30.933c-8.247 0-14.933-6.686-14.933-14.933s6.686-14.933 14.933-14.933 14.933 6.686 14.933 14.933c-0.009 8.243-6.69 14.924-14.933 14.933z"></path>
<path d="M16 2.667c-7.364 0-13.333 5.97-13.333 13.333s5.97 13.333 13.333 13.333 13.333-5.97 13.333-13.333c-0.008-7.36-5.973-13.325-13.333-13.333zM16 28.267c-6.775 0-12.267-5.492-12.267-12.267s5.492-12.267 12.267-12.267 12.267 5.492 12.267 12.267c-0.008 6.772-5.495 12.259-12.267 12.267z"></path>
<path d="M23.855 8.145c-0.17-0.169-0.431-0.204-0.64-0.086l-9.522 5.434c-0.006 0.004-0.008 0.010-0.014 0.014-0.061 0.052-0.118 0.109-0.171 0.171-0.003 0.006-0.010 0.009-0.013 0.014l-5.436 9.522c-0.119 0.209-0.084 0.471 0.086 0.641s0.433 0.205 0.641 0.086l9.52-5.434c0.006-0.004 0.008-0.010 0.014-0.014 0.061-0.052 0.118-0.109 0.171-0.171 0.003-0.006 0.010-0.009 0.013-0.014l5.436-9.52c0.12-0.209 0.085-0.473-0.086-0.643zM9.954 22.046l4.121-7.216 3.099 3.096zM17.925 17.173l-3.093-3.094 7.216-4.121z"></path>
<path d="M7.467 15.467h-2.133c-0.295 0-0.533 0.239-0.533 0.533s0.239 0.533 0.533 0.533h2.133c0.295 0 0.533-0.239 0.533-0.533s-0.239-0.533-0.533-0.533z"></path>
<path d="M26.667 15.467h-2.133c-0.295 0-0.533 0.239-0.533 0.533s0.239 0.533 0.533 0.533h2.133c0.295 0 0.533-0.239 0.533-0.533s-0.239-0.533-0.533-0.533z"></path>
<path d="M16 8c0.295 0 0.533-0.239 0.533-0.533v-2.133c0-0.295-0.239-0.533-0.533-0.533s-0.533 0.239-0.533 0.533v2.133c0 0.295 0.239 0.533 0.533 0.533z"></path>
<path d="M16 24c-0.295 0-0.533 0.239-0.533 0.533v2.133c0 0.295 0.239 0.533 0.533 0.533s0.533-0.239 0.533-0.533v-2.133c0-0.295-0.239-0.533-0.533-0.533z"></path>
</symbol>
<symbol id="worldwide" viewBox="0 0 32 32">
<path d="M27.187 27.429c3.104-3.039 4.813-7.097 4.813-11.429s-1.709-8.391-4.813-11.429c-3.010-2.947-6.984-4.571-11.187-4.571s-8.177 1.624-11.187 4.571c-3.104 3.038-4.813 7.097-4.813 11.429 0 4.331 1.709 8.39 4.813 11.429 1.091 1.068 2.321 1.971 3.654 2.685 0.001 0.001 0.002 0.001 0.003 0.002 0.004 0.002 0.008 0.003 0.012 0.005s0.009 0.005 0.013 0.008c0.162 0.087 0.326 0.171 0.491 0.251 0.287 0.141 0.573 0.271 0.854 0.388 0.002 0.001 0.005 0.002 0.007 0.003 0 0 0 0.001 0 0.001h0.001c0.001 0 0.002 0.001 0.003 0.001 0.032 0.014 0.072 0.028 0.13 0.048l0.035 0.013c0.001 0 0.001 0 0.002 0 0.193 0.078 0.375 0.149 0.548 0.213 0.020 0.007 0.036 0.012 0.056 0.019 0.234 0.086 0.457 0.163 0.672 0.229 0.083 0.025 0.168 0.046 0.253 0.066l0.136 0.034h0.001l0.007 0.002c0.363 0.102 0.726 0.202 1.098 0.278 0.007 0.001 0.013 0.003 0.020 0.005 0.070 0.014 0.142 0.023 0.214 0.034 0.102 0.016 0.203 0.035 0.305 0.049l0.036 0.005 0.416 0.064c0.199 0.033 0.397 0.067 0.6 0.087 0.542 0.054 1.087 0.082 1.621 0.082s1.080-0.027 1.622-0.082c0-0 0.001-0 0.001-0 0.197-0.020 0.392-0.052 0.585-0.085l0.471-0.072c0.173-0.024 0.346-0.048 0.514-0.081 0.381-0.077 0.753-0.181 1.124-0.285l0.137-0.034c0.085-0.020 0.17-0.040 0.251-0.066 0.186-0.058 0.377-0.121 0.58-0.194 0.011-0.004 0.021-0.007 0.032-0.011 0.217-0.078 0.45-0.168 0.713-0.273 0.040-0.014 0.081-0.028 0.12-0.044 0 0 0-0 0.001-0s0.002-0.001 0.003-0.001c0.267-0.112 0.534-0.236 0.804-0.366 0.022-0.011 0.044-0.019 0.066-0.030 0.118-0.058 0.235-0.119 0.352-0.18 0.052-0.027 0.103-0.051 0.156-0.079 0.148-0.079 0.289-0.169 0.435-0.253 0.839-0.483 1.637-1.034 2.378-1.663 0.29-0.246 0.571-0.503 0.843-0.77zM25.317 27.312c-0.156 0.129-0.316 0.255-0.477 0.377-0.104 0.079-0.209 0.158-0.315 0.234-0.157 0.113-0.317 0.22-0.478 0.326-0.112 0.074-0.222 0.149-0.336 0.22-0.194 0.12-0.393 0.234-0.593 0.345-0.080 0.044-0.156 0.093-0.237 0.136-0.001 0.001-0.001 0-0.002 0.001-0.021 0.011-0.042 0.021-0.063 0.032-0.15 0.079-0.302 0.155-0.457 0.23-0.149 0.072-0.299 0.138-0.448 0.204-0.105 0.046-0.206 0.094-0.315 0.139l-0.105 0.038c-0.001 0-0.001 0.001-0.001 0.001l-0.001 0.001c-0.446 0.18-0.819 0.315-1.175 0.424-0 0-0.001 0.001-0.001 0.001v0c-0.055 0.017-0.111 0.030-0.167 0.043s-0.112 0.026-0.168 0.042c0.025-0.026 0.049-0.056 0.074-0.082 0.072-0.076 0.143-0.157 0.214-0.237 0.077-0.087 0.153-0.175 0.228-0.267 0.069-0.084 0.136-0.17 0.204-0.258 0.075-0.098 0.149-0.197 0.223-0.3 0.064-0.090 0.128-0.182 0.191-0.276 0.073-0.109 0.146-0.221 0.217-0.335 0.060-0.096 0.12-0.192 0.178-0.291 0.072-0.121 0.142-0.246 0.211-0.372 0.056-0.101 0.111-0.201 0.165-0.305 0.070-0.133 0.137-0.271 0.204-0.409 0.051-0.105 0.102-0.209 0.151-0.316 0.067-0.148 0.133-0.3 0.198-0.453 0.045-0.106 0.091-0.21 0.135-0.319 0.066-0.163 0.129-0.332 0.192-0.502 0.040-0.106 0.080-0.21 0.119-0.318 0.008-0.023 0.017-0.044 0.024-0.066 0.095 0.051 0.193 0.097 0.287 0.15 0.088 0.049 0.175 0.099 0.262 0.15 0.307 0.181 0.608 0.368 0.899 0.568 0.010 0.007 0.021 0.013 0.031 0.020 0.299 0.207 0.586 0.427 0.866 0.654 0.078 0.063 0.154 0.128 0.23 0.192 0.085 0.072 0.165 0.149 0.248 0.223-0.047 0.042-0.092 0.086-0.14 0.128-0.089 0.077-0.181 0.153-0.272 0.228zM8.005 28.283c-0.183-0.12-0.365-0.242-0.543-0.37-0.097-0.070-0.193-0.142-0.288-0.214-0.166-0.126-0.33-0.255-0.49-0.388-0.092-0.076-0.184-0.152-0.274-0.23-0.047-0.041-0.091-0.084-0.137-0.125 0.083-0.073 0.162-0.15 0.247-0.222 0.077-0.065 0.154-0.131 0.233-0.195 0.28-0.226 0.566-0.446 0.864-0.652 0.013-0.009 0.026-0.017 0.039-0.025 0.289-0.198 0.587-0.384 0.892-0.563 0.087-0.051 0.175-0.101 0.262-0.15 0.094-0.053 0.192-0.099 0.287-0.15 0.008 0.023 0.017 0.043 0.024 0.066 0.040 0.112 0.082 0.219 0.122 0.329 0.061 0.164 0.122 0.328 0.186 0.486 0.047 0.116 0.096 0.228 0.144 0.341 0.062 0.144 0.123 0.289 0.187 0.428 0.053 0.115 0.107 0.226 0.162 0.338 0.064 0.13 0.127 0.26 0.193 0.386 0.057 0.11 0.116 0.217 0.175 0.323 0.067 0.121 0.134 0.24 0.203 0.356 0.061 0.103 0.122 0.203 0.185 0.302 0.070 0.111 0.14 0.22 0.212 0.327 0.064 0.096 0.129 0.189 0.195 0.281 0.073 0.101 0.146 0.2 0.22 0.297 0.068 0.088 0.136 0.176 0.205 0.26 0.075 0.092 0.151 0.179 0.228 0.266 0.071 0.080 0.142 0.16 0.214 0.236 0.025 0.026 0.049 0.056 0.074 0.082-0.056-0.015-0.112-0.029-0.168-0.042s-0.111-0.026-0.165-0.043c-0.001-0-0.002-0.001-0.003-0.001-0.196-0.060-0.4-0.13-0.615-0.209-0.177-0.065-0.36-0.135-0.562-0.216l-0.152-0.056c-0 0-0.001 0-0.001-0-0.239-0.1-0.478-0.21-0.715-0.326-0.156-0.075-0.314-0.154-0.473-0.238-0.015-0.008-0.030-0.015-0.045-0.023-0.001-0.001-0.001-0.001-0.003-0.001s-0.001-0-0.002-0.001c-0.005-0.003-0.010-0.005-0.015-0.007-0.003-0.001-0.005-0.003-0.007-0.004-0.283-0.152-0.559-0.314-0.831-0.484-0.089-0.055-0.175-0.114-0.262-0.172zM10.444 7.195c0.050-0.136 0.1-0.271 0.152-0.402 0.038-0.095 0.076-0.19 0.114-0.283 0.053-0.129 0.107-0.255 0.162-0.379 0.039-0.089 0.078-0.178 0.118-0.265 0.060-0.129 0.121-0.253 0.183-0.377 0.037-0.075 0.074-0.153 0.113-0.226 0.082-0.158 0.167-0.311 0.252-0.461 0.020-0.034 0.038-0.071 0.058-0.104 0.104-0.179 0.211-0.35 0.32-0.516 0.039-0.059 0.079-0.114 0.118-0.172 0.073-0.107 0.146-0.213 0.221-0.314 0.046-0.062 0.092-0.121 0.139-0.18 0.070-0.090 0.141-0.179 0.212-0.264 0.049-0.058 0.098-0.115 0.148-0.171 0.072-0.081 0.145-0.159 0.218-0.236 0.049-0.051 0.098-0.101 0.147-0.15 0.079-0.077 0.16-0.15 0.241-0.221 0.044-0.039 0.088-0.080 0.132-0.117 0.106-0.088 0.213-0.17 0.321-0.248 0.020-0.015 0.040-0.032 0.060-0.046 0.128-0.089 0.258-0.17 0.389-0.244 0.038-0.021 0.076-0.038 0.114-0.058 0.094-0.049 0.187-0.096 0.282-0.137 0.048-0.020 0.096-0.038 0.144-0.056 0.086-0.033 0.173-0.064 0.259-0.090 0.051-0.015 0.102-0.029 0.153-0.042 0.040-0.010 0.079-0.016 0.119-0.025v7.332c-0.018-0.001-0.036-0.001-0.053-0.002-0.375-0.018-0.749-0.054-1.12-0.102-0.082-0.011-0.164-0.023-0.246-0.034-0.376-0.055-0.751-0.12-1.122-0.205-0.026-0.006-0.051-0.014-0.077-0.020-0.353-0.083-0.704-0.182-1.051-0.291-0.076-0.024-0.152-0.046-0.227-0.072-0.355-0.118-0.708-0.25-1.057-0.396-0.025-0.011-0.050-0.022-0.075-0.033 0.011-0.034 0.022-0.069 0.034-0.103 0.034-0.098 0.069-0.194 0.105-0.291zM16.939 1.479c0.087 0.026 0.173 0.057 0.259 0.090 0.048 0.018 0.097 0.036 0.144 0.057 0.095 0.041 0.188 0.088 0.282 0.137 0.038 0.020 0.077 0.037 0.114 0.059 0.13 0.073 0.26 0.154 0.389 0.244 0.020 0.014 0.040 0.031 0.061 0.046 0.107 0.077 0.214 0.159 0.32 0.247 0.045 0.037 0.089 0.079 0.133 0.118 0.081 0.071 0.161 0.144 0.24 0.221 0.049 0.048 0.098 0.099 0.147 0.15 0.073 0.076 0.146 0.154 0.219 0.236 0.050 0.056 0.099 0.113 0.148 0.171 0.071 0.085 0.142 0.173 0.212 0.263 0.047 0.060 0.093 0.119 0.139 0.181 0.075 0.101 0.148 0.207 0.221 0.314 0.039 0.057 0.079 0.112 0.117 0.171 0.109 0.166 0.216 0.338 0.32 0.516 0.020 0.034 0.038 0.071 0.058 0.106 0.085 0.149 0.169 0.301 0.251 0.459 0.039 0.074 0.076 0.152 0.114 0.228 0.062 0.123 0.122 0.247 0.182 0.375 0.040 0.087 0.079 0.176 0.119 0.265 0.055 0.124 0.109 0.25 0.162 0.379 0.039 0.094 0.077 0.189 0.115 0.285 0.051 0.13 0.101 0.264 0.15 0.398 0.036 0.098 0.072 0.195 0.106 0.295 0.012 0.033 0.022 0.068 0.034 0.101-0.025 0.010-0.049 0.022-0.074 0.032-0.35 0.147-0.703 0.279-1.060 0.398-0.074 0.024-0.148 0.047-0.223 0.070-0.349 0.11-0.701 0.21-1.056 0.293-0.025 0.006-0.049 0.013-0.073 0.019-0.371 0.085-0.746 0.15-1.123 0.205-0.081 0.012-0.163 0.024-0.245 0.034-0.371 0.048-0.745 0.083-1.12 0.102-0.018 0.001-0.036 0.001-0.054 0.002v-7.332c0.040 0.009 0.079 0.015 0.119 0.025 0.051 0.013 0.102 0.026 0.153 0.042zM21.554 24.808c-0.049 0.134-0.099 0.266-0.15 0.396-0.038 0.097-0.076 0.192-0.115 0.286-0.053 0.128-0.107 0.254-0.162 0.378-0.039 0.089-0.078 0.178-0.119 0.265-0.059 0.128-0.12 0.252-0.182 0.376-0.038 0.076-0.075 0.154-0.114 0.228-0.082 0.157-0.166 0.309-0.251 0.458-0.020 0.034-0.038 0.072-0.058 0.106-0.105 0.179-0.211 0.351-0.32 0.517-0.038 0.059-0.078 0.113-0.117 0.17-0.073 0.107-0.147 0.214-0.222 0.315-0.046 0.062-0.092 0.121-0.139 0.181-0.070 0.091-0.141 0.179-0.213 0.265-0.049 0.058-0.097 0.114-0.147 0.169-0.073 0.082-0.146 0.161-0.22 0.238-0.048 0.050-0.096 0.1-0.145 0.148-0.080 0.078-0.16 0.151-0.241 0.222-0.044 0.039-0.088 0.080-0.133 0.117-0.107 0.089-0.214 0.171-0.322 0.249-0.020 0.014-0.039 0.030-0.058 0.044-0.128 0.089-0.258 0.17-0.389 0.244-0.037 0.021-0.075 0.038-0.113 0.058-0.094 0.050-0.189 0.097-0.284 0.138-0.048 0.020-0.095 0.038-0.143 0.056-0.087 0.033-0.173 0.064-0.26 0.090-0.051 0.015-0.101 0.029-0.152 0.042-0.040 0.010-0.079 0.016-0.119 0.025v-7.332c0.018 0.001 0.036 0.001 0.055 0.001 0.375 0.019 0.748 0.054 1.118 0.102 0.083 0.011 0.165 0.023 0.247 0.034 0.376 0.055 0.751 0.12 1.122 0.205 0.024 0.006 0.049 0.013 0.073 0.019 0.355 0.083 0.707 0.183 1.056 0.293 0.074 0.023 0.148 0.046 0.222 0.070 0.357 0.119 0.71 0.251 1.060 0.398 0.025 0.010 0.049 0.022 0.074 0.032-0.011 0.033-0.022 0.067-0.033 0.1-0.035 0.101-0.071 0.199-0.107 0.297zM15.214 30.563c-0.051-0.013-0.101-0.026-0.152-0.042-0.087-0.026-0.174-0.057-0.261-0.090-0.048-0.018-0.095-0.035-0.143-0.056-0.095-0.041-0.19-0.089-0.284-0.138-0.037-0.020-0.075-0.036-0.112-0.058-0.131-0.073-0.261-0.154-0.389-0.244-0.019-0.014-0.038-0.030-0.058-0.044-0.109-0.078-0.216-0.16-0.323-0.249-0.044-0.037-0.088-0.078-0.132-0.117-0.081-0.072-0.162-0.145-0.242-0.223-0.049-0.048-0.097-0.098-0.145-0.148-0.074-0.077-0.148-0.156-0.22-0.238-0.049-0.055-0.098-0.112-0.146-0.169-0.072-0.085-0.143-0.174-0.213-0.265-0.046-0.059-0.093-0.118-0.138-0.18-0.075-0.101-0.148-0.207-0.221-0.315-0.039-0.057-0.079-0.112-0.118-0.171-0.109-0.166-0.215-0.337-0.32-0.516-0.020-0.034-0.038-0.070-0.058-0.104-0.085-0.15-0.17-0.302-0.252-0.46-0.038-0.074-0.075-0.151-0.113-0.226-0.062-0.124-0.123-0.248-0.183-0.377-0.040-0.087-0.079-0.176-0.119-0.265-0.055-0.124-0.109-0.25-0.162-0.378-0.039-0.094-0.077-0.189-0.115-0.285-0.051-0.131-0.101-0.265-0.151-0.4-0.036-0.097-0.071-0.194-0.106-0.293-0.012-0.033-0.023-0.068-0.034-0.102 0.025-0.011 0.050-0.023 0.075-0.033 0.349-0.146 0.702-0.279 1.057-0.397 0.075-0.025 0.151-0.048 0.226-0.071 0.348-0.11 0.698-0.209 1.051-0.292 0.026-0.006 0.051-0.014 0.077-0.020 0.371-0.085 0.745-0.15 1.121-0.204 0.083-0.012 0.165-0.024 0.248-0.035 0.371-0.048 0.743-0.083 1.117-0.102 0.018-0.001 0.036-0.001 0.055-0.001v7.332c-0.040-0.008-0.080-0.015-0.119-0.025zM9.602 21.83c-0.107-0.502-0.199-1.014-0.277-1.534-0.013-0.087-0.032-0.17-0.044-0.257-0.086-0.606-0.149-1.224-0.196-1.849-0.014-0.188-0.018-0.379-0.029-0.569-0.017-0.317-0.026-0.635-0.033-0.955h6.31v5.251c-0.027 0.001-0.053 0.006-0.080 0.007-0.402 0.019-0.803 0.054-1.201 0.104-0.088 0.011-0.176 0.024-0.265 0.037-0.383 0.054-0.763 0.119-1.141 0.202-0.030 0.007-0.061 0.011-0.091 0.018-0.399 0.089-0.794 0.199-1.186 0.32-0.088 0.027-0.177 0.054-0.264 0.083-0.389 0.127-0.776 0.267-1.158 0.424-0.007 0.003-0.013 0.005-0.019 0.007-0.066-0.241-0.133-0.48-0.192-0.727-0.045-0.187-0.093-0.372-0.133-0.563zM9.086 13.81c0.047-0.624 0.11-1.243 0.196-1.85 0.012-0.085 0.030-0.167 0.043-0.252 0.079-0.522 0.171-1.036 0.278-1.539 0.040-0.19 0.088-0.374 0.132-0.561 0.059-0.248 0.126-0.488 0.192-0.729 0.006 0.003 0.013 0.005 0.019 0.007 0.383 0.158 0.769 0.297 1.159 0.425 0.087 0.028 0.175 0.056 0.263 0.083 0.393 0.121 0.788 0.231 1.187 0.32 0.031 0.007 0.063 0.012 0.094 0.018 0.377 0.082 0.758 0.147 1.14 0.201 0.088 0.013 0.175 0.026 0.263 0.037 0.398 0.050 0.798 0.085 1.201 0.104 0.027 0.001 0.053 0.006 0.080 0.007v5.252h-6.31c0.007-0.32 0.016-0.638 0.034-0.955 0.010-0.189 0.015-0.38 0.029-0.568zM17.948 9.971c0.088-0.011 0.175-0.024 0.263-0.037 0.382-0.054 0.762-0.119 1.139-0.201 0.032-0.007 0.064-0.012 0.095-0.019 0.397-0.089 0.79-0.199 1.181-0.318 0.092-0.028 0.183-0.057 0.274-0.087 0.385-0.126 0.767-0.263 1.145-0.419 0.009-0.004 0.018-0.007 0.027-0.010 0.065 0.24 0.132 0.478 0.191 0.723 0.045 0.189 0.093 0.375 0.134 0.568 0.107 0.502 0.199 1.014 0.277 1.534 0.013 0.086 0.031 0.169 0.043 0.255 0.086 0.607 0.149 1.225 0.196 1.849 0.014 0.188 0.018 0.379 0.029 0.568 0.017 0.317 0.026 0.636 0.033 0.955h-6.31v-5.252c0.027-0.001 0.054-0.006 0.080-0.007 0.403-0.019 0.803-0.054 1.201-0.104zM22.914 18.19c-0.047 0.624-0.11 1.242-0.196 1.848-0.013 0.088-0.031 0.172-0.044 0.26-0.078 0.519-0.17 1.030-0.277 1.53-0.041 0.193-0.089 0.38-0.135 0.569-0.058 0.245-0.125 0.483-0.19 0.722-0.009-0.004-0.018-0.006-0.027-0.010-0.378-0.156-0.76-0.293-1.145-0.419-0.091-0.030-0.183-0.058-0.274-0.087-0.391-0.12-0.784-0.229-1.181-0.318-0.032-0.007-0.064-0.012-0.096-0.019-0.377-0.082-0.756-0.147-1.138-0.201-0.088-0.013-0.175-0.026-0.263-0.037-0.398-0.050-0.799-0.085-1.201-0.104-0.027-0.001-0.053-0.006-0.080-0.007v-5.251h6.31c-0.007 0.319-0.016 0.638-0.033 0.955-0.011 0.189-0.015 0.381-0.029 0.569zM26.701 26.020c-0.105-0.095-0.217-0.182-0.325-0.273-0.097-0.082-0.193-0.165-0.291-0.245-0.274-0.222-0.556-0.435-0.846-0.639-0.040-0.028-0.077-0.058-0.117-0.086-0.333-0.23-0.678-0.445-1.030-0.651-0.096-0.056-0.194-0.107-0.291-0.162-0.161-0.090-0.319-0.184-0.484-0.269 0.013-0.045 0.021-0.093 0.034-0.137 0.129-0.469 0.247-0.947 0.352-1.436 0.018-0.084 0.034-0.169 0.051-0.253 0.105-0.515 0.199-1.036 0.276-1.568 0.001-0.004 0.001-0.008 0.002-0.012 0.077-0.535 0.135-1.080 0.183-1.628 0.008-0.090 0.017-0.179 0.024-0.27 0.041-0.527 0.068-1.058 0.082-1.592 0.001-0.044 0.006-0.087 0.007-0.132h6.326c-0.156 3.507-1.541 6.787-3.951 9.354zM24.326 15.333c-0.001-0.044-0.006-0.087-0.007-0.132-0.014-0.535-0.041-1.066-0.082-1.593-0.007-0.090-0.016-0.178-0.024-0.267-0.048-0.55-0.106-1.095-0.183-1.632-0-0-0-0.001-0-0.001-0.077-0.538-0.173-1.066-0.279-1.586-0.016-0.079-0.031-0.158-0.048-0.236-0.106-0.497-0.226-0.983-0.357-1.458-0.011-0.040-0.018-0.083-0.030-0.122 0.161-0.083 0.315-0.175 0.473-0.262 0.102-0.057 0.206-0.111 0.307-0.17 0.351-0.205 0.695-0.42 1.027-0.649 0.038-0.026 0.073-0.055 0.11-0.081 0.293-0.206 0.578-0.422 0.855-0.646 0.097-0.078 0.19-0.159 0.285-0.239 0.109-0.093 0.223-0.181 0.329-0.277 2.41 2.567 3.795 5.846 3.951 9.354zM25.734 5.039c-0.086 0.076-0.168 0.156-0.256 0.23-0.075 0.064-0.15 0.128-0.227 0.19-0.28 0.227-0.567 0.447-0.865 0.653-0.016 0.011-0.033 0.021-0.049 0.032-0.284 0.195-0.578 0.378-0.877 0.554-0.091 0.053-0.182 0.105-0.274 0.156s-0.188 0.097-0.281 0.147c-0.008-0.022-0.017-0.043-0.024-0.066-0.040-0.114-0.083-0.223-0.125-0.334-0.061-0.163-0.121-0.326-0.185-0.483-0.047-0.116-0.096-0.228-0.144-0.341-0.062-0.146-0.125-0.292-0.189-0.433-0.052-0.113-0.105-0.222-0.159-0.331-0.065-0.134-0.131-0.268-0.198-0.397-0.056-0.107-0.113-0.21-0.169-0.313-0.069-0.125-0.138-0.248-0.209-0.368-0.059-0.099-0.119-0.196-0.179-0.292-0.072-0.115-0.145-0.229-0.22-0.339-0.062-0.092-0.125-0.182-0.188-0.27-0.076-0.106-0.152-0.209-0.23-0.309-0.065-0.085-0.131-0.168-0.197-0.249-0.078-0.095-0.157-0.187-0.237-0.277-0.069-0.077-0.137-0.154-0.207-0.228-0.030-0.031-0.058-0.066-0.088-0.097 2.125 0.594 4.096 1.668 5.779 3.166zM11.957 1.97c-0.072 0.075-0.142 0.154-0.212 0.233-0.077 0.087-0.153 0.175-0.228 0.266-0.070 0.086-0.14 0.174-0.209 0.265-0.072 0.094-0.144 0.19-0.215 0.289-0.068 0.095-0.136 0.193-0.203 0.292-0.069 0.102-0.136 0.207-0.204 0.314-0.065 0.104-0.13 0.208-0.194 0.316-0.066 0.112-0.13 0.227-0.195 0.343-0.061 0.111-0.122 0.221-0.182 0.335-0.064 0.123-0.126 0.25-0.188 0.378-0.056 0.115-0.112 0.229-0.167 0.348-0.063 0.137-0.124 0.279-0.184 0.421-0.050 0.116-0.1 0.231-0.148 0.35-0.063 0.156-0.123 0.318-0.183 0.48-0.042 0.112-0.085 0.222-0.126 0.337-0.008 0.022-0.016 0.043-0.024 0.065-0.096-0.051-0.195-0.098-0.289-0.151-0.086-0.048-0.173-0.097-0.258-0.147-0.307-0.18-0.608-0.368-0.898-0.567-0.011-0.008-0.022-0.014-0.033-0.022-0.299-0.207-0.586-0.428-0.867-0.655-0.077-0.062-0.152-0.126-0.227-0.189-0.088-0.074-0.17-0.154-0.256-0.23 1.682-1.497 3.652-2.571 5.778-3.166-0.030 0.030-0.058 0.065-0.088 0.097zM5.3 5.98c0.105 0.094 0.216 0.181 0.324 0.272 0.098 0.083 0.195 0.167 0.295 0.248 0.269 0.218 0.546 0.428 0.831 0.628 0.045 0.032 0.087 0.066 0.132 0.097 0.331 0.228 0.674 0.442 1.024 0.647 0.099 0.058 0.202 0.112 0.303 0.168 0.159 0.088 0.314 0.181 0.476 0.264-0.011 0.040-0.019 0.083-0.030 0.123-0.132 0.476-0.251 0.961-0.357 1.457-0.017 0.079-0.032 0.159-0.048 0.238-0.105 0.518-0.201 1.044-0.278 1.58-0.001 0.003-0.001 0.006-0.001 0.009-0.077 0.535-0.135 1.079-0.183 1.627-0.008 0.091-0.017 0.181-0.024 0.273-0.041 0.526-0.068 1.056-0.082 1.589-0.001 0.045-0.006 0.089-0.007 0.134h-6.326c0.156-3.508 1.54-6.786 3.951-9.354zM7.674 16.667c0.001 0.045 0.006 0.089 0.007 0.134 0.014 0.533 0.041 1.063 0.082 1.589 0.007 0.091 0.016 0.181 0.024 0.273 0.048 0.548 0.106 1.092 0.183 1.628 0 0.003 0.001 0.005 0.001 0.008 0.077 0.536 0.173 1.062 0.278 1.58 0.016 0.079 0.031 0.159 0.048 0.237 0.106 0.496 0.226 0.982 0.357 1.458 0.011 0.040 0.019 0.082 0.030 0.122-0.162 0.083-0.318 0.176-0.476 0.264-0.101 0.056-0.203 0.11-0.303 0.168-0.35 0.205-0.693 0.419-1.024 0.647-0.045 0.031-0.087 0.065-0.131 0.097-0.285 0.201-0.561 0.41-0.831 0.628-0.101 0.082-0.199 0.167-0.298 0.251-0.107 0.091-0.217 0.177-0.321 0.27-2.411-2.568-3.796-5.846-3.951-9.354z"></path>
</symbol>
<symbol id="settings" viewBox="0 0 32 32">
<path d="M17.004 32h-2.008c-1.624 0-2.946-1.322-2.946-2.946v-0.679c-0.691-0.221-1.361-0.499-2.006-0.833l-0.482 0.482c-1.166 1.168-3.034 1.133-4.167-0l-1.419-1.419c-1.134-1.133-1.167-3 0-4.167l0.481-0.481c-0.334-0.645-0.612-1.315-0.833-2.006h-0.679c-1.624 0-2.946-1.322-2.946-2.946v-2.008c0-1.624 1.322-2.946 2.946-2.946h0.679c0.221-0.691 0.499-1.361 0.833-2.006l-0.482-0.481c-1.167-1.165-1.134-3.033 0-4.167l1.42-1.42c1.135-1.136 3.003-1.165 4.167 0l0.481 0.481c0.645-0.333 1.316-0.612 2.006-0.833v-0.679c0-1.624 1.322-2.946 2.946-2.946h2.008c1.624 0 2.946 1.321 2.946 2.946v0.679c0.691 0.221 1.361 0.499 2.006 0.833l0.482-0.482c1.166-1.168 3.034-1.133 4.167 0l1.419 1.419c1.134 1.133 1.167 3.001-0 4.167l-0.481 0.481c0.334 0.645 0.612 1.315 0.833 2.006h0.679c1.624 0 2.946 1.322 2.946 2.946v2.008c0 1.624-1.322 2.946-2.946 2.946h-0.679c-0.221 0.691-0.499 1.361-0.833 2.006l0.482 0.482c1.167 1.165 1.134 3.033-0 4.167l-1.42 1.419c-1.135 1.137-3.003 1.165-4.166-0l-0.481-0.481c-0.645 0.334-1.316 0.612-2.006 0.833v0.679c0 1.624-1.322 2.946-2.946 2.946zM10.357 25.573c0.895 0.53 1.859 0.93 2.864 1.189 0.414 0.107 0.703 0.48 0.703 0.908v1.384c0 0.59 0.48 1.071 1.071 1.071h2.008c0.59 0 1.071-0.48 1.071-1.071v-1.384c0-0.428 0.289-0.801 0.703-0.908 1.005-0.259 1.969-0.66 2.864-1.189 0.368-0.218 0.837-0.159 1.14 0.144l0.98 0.981c0.423 0.423 1.102 0.413 1.514 0l1.42-1.42c0.411-0.411 0.425-1.090 0-1.514l-0.981-0.981c-0.303-0.303-0.362-0.772-0.144-1.14 0.53-0.895 0.93-1.859 1.189-2.864 0.107-0.414 0.48-0.703 0.908-0.703h1.384c0.59 0 1.071-0.48 1.071-1.071v-2.008c0-0.59-0.48-1.071-1.071-1.071h-1.384c-0.428 0-0.801-0.289-0.908-0.703-0.259-1.005-0.66-1.969-1.189-2.864-0.218-0.368-0.159-0.838 0.144-1.14l0.981-0.981c0.424-0.423 0.413-1.102 0-1.514l-1.42-1.42c-0.412-0.412-1.091-0.424-1.514-0l-0.981 0.981c-0.303 0.303-0.772 0.362-1.14 0.144-0.895-0.53-1.859-0.93-2.864-1.189-0.414-0.107-0.703-0.48-0.703-0.908v-1.384c0-0.59-0.48-1.071-1.071-1.071h-2.008c-0.59 0-1.071 0.48-1.071 1.071v1.384c0 0.428-0.289 0.801-0.703 0.908-1.005 0.259-1.969 0.66-2.864 1.189-0.368 0.218-0.838 0.159-1.14-0.144l-0.98-0.981c-0.423-0.423-1.102-0.413-1.514-0l-1.42 1.42c-0.411 0.411-0.425 1.090-0 1.514l0.981 0.981c0.303 0.303 0.362 0.772 0.144 1.14-0.53 0.895-0.93 1.859-1.189 2.864-0.107 0.414-0.48 0.703-0.908 0.703h-1.384c-0.59 0-1.071 0.48-1.071 1.071v2.008c0 0.59 0.48 1.071 1.071 1.071h1.384c0.428 0 0.801 0.289 0.908 0.703 0.259 1.005 0.659 1.969 1.189 2.864 0.218 0.368 0.159 0.837-0.144 1.14l-0.981 0.981c-0.424 0.423-0.413 1.102-0 1.514l1.42 1.42c0.412 0.412 1.091 0.424 1.514 0l0.981-0.981c0.223-0.223 0.687-0.412 1.14-0.144z"></path>
<path d="M16 22.962c-3.839 0-6.963-3.123-6.963-6.963s3.123-6.963 6.963-6.963 6.962 3.123 6.962 6.963-3.123 6.963-6.963 6.963zM16 10.912c-2.805 0-5.088 2.282-5.088 5.088s2.282 5.087 5.088 5.087 5.087-2.282 5.087-5.088-2.282-5.088-5.088-5.088z"></path>
</symbol>
<symbol id="money" viewBox="0 0 32 32">
<path d="M22.848 22.233h-9.187c-0.259 0-0.469 0.21-0.469 0.469s0.21 0.469 0.469 0.469h9.187c1.81 0 3.282-1.472 3.282-3.282v-7.040c0-1.81-1.472-3.282-3.282-3.282h-2.662l-6.050-3.088c-0.604-0.308-1.345-0.067-1.653 0.536l-1.303 2.553h-1.736c-0.603 0-1.094 0.491-1.094 1.094v11.416c0 0.603 0.491 1.094 1.094 1.094h2.155c0.259 0 0.469-0.21 0.469-0.469s-0.21-0.469-0.469-0.469h-2.155c-0.086 0-0.156-0.070-0.156-0.156v-11.416c0-0.086 0.070-0.156 0.156-0.156h13.404c1.293 0 2.344 1.052 2.344 2.344v1.524h-3.735c-1.196 0-2.169 0.973-2.169 2.169v0.625c0 1.196 0.973 2.169 2.169 2.169h3.735v0.553c0 1.293-1.052 2.345-2.344 2.345zM13.318 7.441c0.073-0.143 0.249-0.2 0.392-0.127l4.414 2.253h-5.891zM21.457 18.398c-0.679 0-1.231-0.552-1.231-1.231v-0.625c0-0.679 0.552-1.231 1.231-1.231h3.735v3.088z"></path>
<path d="M30.871 10.293c-0.749-1.817-1.832-3.447-3.221-4.845-0.341-0.343-0.701-0.673-1.072-0.981-0.199-0.165-0.495-0.138-0.66 0.061s-0.138 0.495 0.061 0.66c0.347 0.289 0.686 0.599 1.006 0.921 2.629 2.647 4.077 6.16 4.077 9.891 0 3.75-1.46 7.275-4.111 9.926s-6.176 4.111-9.926 4.111c-2.962 0-5.783-0.906-8.174-2.624l0.554-0.72c2.23 1.594 4.86 2.436 7.62 2.436 3.508 0 6.807-1.371 9.291-3.861s3.847-5.793 3.838-9.301c-0.018-7.203-5.893-13.078-13.096-13.096-0.011 0-0.023-0-0.034-0-2.094 0-4.098 0.481-5.954 1.43-1.779 0.909-3.355 2.238-4.557 3.842-0.155 0.207-0.113 0.501 0.094 0.656s0.501 0.113 0.656-0.094c2.298-3.068 5.946-4.897 9.763-4.897 0.010 0 0.020 0 0.030 0 6.689 0.017 12.144 5.472 12.161 12.161 0.008 3.257-1.258 6.324-3.564 8.637s-5.371 3.586-8.627 3.586c-2.631 0-5.135-0.824-7.241-2.382-0.31-0.23-0.754-0.167-0.99 0.14l-0.825 1.073c-0.118 0.153-0.168 0.343-0.141 0.534s0.127 0.361 0.283 0.477c2.591 1.924 5.674 2.941 8.914 2.941 4 0 7.761-1.558 10.589-4.386s4.386-6.589 4.386-10.589c0-1.97-0.38-3.89-1.129-5.707z"></path>
<path d="M6.135 13.734c-0.089-0.15-0.231-0.257-0.4-0.3s-0.345-0.018-0.495 0.071l-0.17 0.101c0.215-1.077 0.575-2.117 1.075-3.102 0.117-0.231 0.025-0.513-0.206-0.63s-0.513-0.025-0.63 0.206c-0.698 1.376-1.143 2.851-1.323 4.383-0.021 0.177 0.061 0.351 0.21 0.448s0.341 0.101 0.495 0.010l0.783-0.464 0.463 0.781-2.677 1.587-2.205-2 0.61-0.672 0.629 0.571c0.131 0.118 0.316 0.154 0.481 0.091s0.281-0.212 0.3-0.387c0.353-3.185 1.744-6.073 4.024-8.352 2.639-2.639 6.146-4.099 9.877-4.111 0.016-0 0.032-0 0.048-0 2.567 0 5.069 0.692 7.24 2.004 0.222 0.134 0.51 0.063 0.644-0.159s0.063-0.51-0.159-0.644c-2.317-1.4-4.987-2.139-7.725-2.139-0.017 0-0.034 0-0.051 0-1.97 0.007-3.889 0.393-5.703 1.148s-3.441 1.845-4.834 3.238c-2.218 2.218-3.647 4.976-4.168 8.022l-0.184-0.167c-0.129-0.117-0.296-0.176-0.471-0.169s-0.335 0.084-0.452 0.214l-0.992 1.094c-0.117 0.129-0.177 0.296-0.169 0.471s0.084 0.335 0.214 0.452l2.537 2.302c0.136 0.123 0.307 0.186 0.48 0.186 0.125 0 0.251-0.033 0.365-0.101l3.063-1.815c0.31-0.184 0.413-0.585 0.229-0.895z"></path>
<path d="M22.572 16.849c0 0.437-0.354 0.791-0.791 0.791s-0.791-0.354-0.791-0.791c0-0.437 0.354-0.791 0.791-0.791s0.791 0.354 0.791 0.791z"></path>
</symbol>
<symbol id="input" viewBox="0 0 32 32">
<path d="M13.822 13.451l-9.888-7.017c-1.274-0.957-2.231-0.641-2.66-0.422-0.535 0.316-1.274 0.957-1.274 2.555v14.885c0 1.703 0.852 2.336 1.274 2.555 0.211 0.105 0.535 0.211 0.957 0.211 0.535 0 1.063-0.105 1.703-0.852l9.888-7.016c0.852-0.641 1.379-1.492 1.379-2.45s-0.527-1.809-1.379-2.45zM12.654 17.069l-9.888 7.016c-0.211 0.105-0.422 0.211-0.422 0.211 0-0.105-0.105-0.316-0.105-0.641v-14.885c0-0.422 0.105-0.641 0.105-0.641s0.211 0 0.316 0.422l9.888 7.016c0.316 0.211 0.535 0.535 0.535 0.746-0.008 0.333-0.114 0.544-0.43 0.755z"></path>
<path d="M30.621 13.451l-10.099-7.017c-0.957-0.641-2.020-0.746-2.977-0.316-0.852 0.422-1.379 1.379-1.379 2.45v14.885c0 1.063 0.535 2.020 1.379 2.45 0.316 0.211 0.746 0.316 1.168 0.316 0.641 0 1.274-0.105 1.914-0.746l9.993-7.016c0.852-0.641 1.379-1.598 1.379-2.555 0.008-0.957-0.527-1.809-1.379-2.45zM29.242 16.858l-9.993 7.017c-0.316 0.316-0.641 0.316-0.746 0.211-0.211-0.105-0.211-0.422-0.211-0.535v-14.885c0-0.105 0-0.422 0.211-0.535 0.105 0 0.105 0 0.211 0 0.211 0 0.422 0 0.535 0.211l10.099 7.016c0.211 0.105 0.422 0.316 0.422 0.641s-0.211 0.649-0.527 0.86z"></path>
</symbol>
<symbol id="heart" viewBox="0 0 32 32">
<path d="M29.665 4.642c-1.578-1.791-3.768-2.777-6.165-2.777-3.372 0-5.506 2.014-6.703 3.703-0.311 0.438-0.575 0.878-0.797 1.292-0.222-0.414-0.486-0.853-0.797-1.292-1.197-1.689-3.332-3.703-6.703-3.703-2.397 0-4.587 0.986-6.165 2.777-1.506 1.708-2.335 3.996-2.335 6.442 0 2.663 1.040 5.139 3.272 7.794 1.995 2.372 4.865 4.818 8.188 7.65 1.238 1.055 2.519 2.146 3.882 3.339l0.041 0.036c0.177 0.155 0.397 0.232 0.617 0.232s0.441-0.077 0.617-0.232l0.041-0.036c1.363-1.193 2.644-2.284 3.882-3.339 3.323-2.832 6.193-5.277 8.188-7.65 2.232-2.655 3.272-5.131 3.272-7.794 0-2.446-0.829-4.734-2.335-6.443zM19.325 25.101c-1.067 0.91-2.166 1.846-3.325 2.853-1.158-1.007-2.257-1.943-3.325-2.853-6.504-5.542-10.8-9.203-10.8-14.016 0-1.989 0.663-3.837 1.866-5.203 1.217-1.381 2.907-2.142 4.759-2.142 2.571 0 4.232 1.584 5.174 2.912 0.844 1.192 1.285 2.393 1.435 2.854 0.126 0.386 0.486 0.647 0.891 0.647s0.766-0.261 0.891-0.647c0.15-0.461 0.591-1.662 1.435-2.854 0.941-1.328 2.603-2.912 5.174-2.912 1.851 0 3.541 0.761 4.759 2.142 1.204 1.366 1.866 3.213 1.866 5.203 0 4.813-4.297 8.474-10.8 14.016z"></path>
</symbol>
<symbol id="clock" viewBox="0 0 32 32">
<path d="M16 0c-8.822 0-16 7.178-16 16s7.178 16 16 16 16-7.178 16-16-7.178-16-16-16zM16 30.667c-8.087 0-14.667-6.579-14.667-14.667s6.579-14.667 14.667-14.667 14.667 6.579 14.667 14.667-6.579 14.667-14.667 14.667z"></path>
<path d="M17.268 16.325c0.028-0.107 0.066-0.21 0.066-0.325 0-0.487-0.276-0.896-0.667-1.128v-10.205c0-0.369-0.298-0.667-0.667-0.667s-0.667 0.298-0.667 0.667v10.205c-0.391 0.233-0.667 0.641-0.667 1.128 0 0.735 0.598 1.333 1.333 1.333 0.115 0 0.218-0.038 0.325-0.066l5.204 5.204c0.13 0.13 0.301 0.195 0.471 0.195s0.341-0.065 0.471-0.195c0.26-0.26 0.26-0.682 0-0.943l-5.204-5.204z"></path>
</symbol>
<symbol id="shopping-cart" viewBox="0 0 32 32">
<path d="M29.658 2.909h-23.84v0.209l-0.298-1.023c-0.359-1.234-1.508-2.095-2.793-2.095h-2c-0.402 0-0.727 0.325-0.727 0.727s0.325 0.727 0.727 0.727h2c0.643 0 1.217 0.43 1.396 1.048l4.527 15.521-2.32 2.899c-0.331 0.414-0.513 0.933-0.513 1.463 0 1.292 1.050 2.342 2.342 2.342h20.203c0.402 0 0.727-0.325 0.727-0.727s-0.325-0.727-0.727-0.727h-20.203c-0.489 0-0.888-0.398-0.888-0.888 0-0.201 0.069-0.398 0.195-0.555l2.337-2.921h14.265c1.121 0 2.155-0.656 2.633-1.67l5.075-10.785c0.146-0.31 0.222-0.655 0.222-0.996v-0.206c0-1.292-1.050-2.342-2.342-2.342zM30.545 5.457c0 0.13-0.029 0.261-0.085 0.378l-5.075 10.784c-0.239 0.507-0.756 0.835-1.317 0.835h-14.070l-3.818-13.091h23.476c0.489 0 0.888 0.398 0.888 0.888v0.206z"></path>
<path d="M8.727 26.182c-1.604 0-2.909 1.305-2.909 2.909s1.305 2.909 2.909 2.909 2.909-1.305 2.909-2.909-1.305-2.909-2.909-2.909zM8.727 30.545c-0.802 0-1.455-0.653-1.455-1.455s0.653-1.455 1.455-1.455c0.802 0 1.455 0.653 1.455 1.455s-0.653 1.455-1.455 1.455z"></path>
<path d="M26.182 26.182c-1.604 0-2.909 1.305-2.909 2.909s1.305 2.909 2.909 2.909 2.909-1.305 2.909-2.909-1.305-2.909-2.909-2.909zM26.182 30.545c-0.802 0-1.455-0.653-1.455-1.455s0.653-1.455 1.455-1.455c0.802 0 1.455 0.653 1.455 1.455s-0.653 1.455-1.455 1.455z"></path>
</symbol>
<symbol id="change" viewBox="0 0 32 32">
<path d="M10.948 11.545l1.482 2.965 1.491-2.982-0.588-1.176c-1.109-2.201-3.351-3.685-5.94-3.685-0.008 0-0.016 0-0.024 0h-7.369v2.667h7.37c0.004 0 0.009-0 0.013-0 1.553 0 2.899 0.89 3.554 2.189l0.010 0.023z"></path>
<path d="M27.61 19.057l-1.886 1.886 1.724 1.724h-5.485c-0.004 0-0.009 0-0.013 0-1.553 0-2.899-0.89-3.554-2.189l-0.010-0.023-1.482-2.965-1.491 2.982 0.588 1.176c1.109 2.201 3.351 3.685 5.94 3.685 0.008 0 0.016 0 0.024-0h5.484l-1.724 1.724 1.886 1.886 4-4c0.241-0.241 0.391-0.575 0.391-0.943s-0.149-0.702-0.391-0.943v0z"></path>
<path d="M31.61 7.057l-4-4-1.886 1.886 1.724 1.724h-5.485c-0.007-0-0.015-0-0.023-0-2.589 0-4.831 1.484-5.923 3.647l-0.017 0.038-5.052 10.103c-0.665 1.321-2.011 2.211-3.564 2.211-0.005 0-0.009 0-0.014-0h-7.37v2.667h7.37c0.007 0 0.015 0 0.022 0 2.589 0 4.831-1.484 5.923-3.647l0.017-0.038 5.052-10.104c0.665-1.321 2.011-2.211 3.564-2.211 0.005 0 0.009 0 0.014 0h5.484l-1.724 1.724 1.886 1.886 4-4c0.241-0.241 0.391-0.575 0.391-0.943s-0.149-0.702-0.391-0.943v0z"></path>
</symbol>
<symbol id="mail" viewBox="0 0 32 32">
<path d="M29.188 3.813h-26.375c-1.549 0-2.813 1.262-2.813 2.813v18.75c0 1.545 1.258 2.813 2.813 2.813h26.375c1.545 0 2.813-1.258 2.813-2.813v-18.75c0-1.545-1.258-2.813-2.813-2.813zM28.799 5.688l-12.739 12.74-12.85-12.74h25.589zM1.875 24.987v-17.982l9.030 8.953-9.030 9.030zM3.201 26.313l9.036-9.036 3.166 3.139c0.367 0.363 0.958 0.362 1.323-0.003l3.087-3.087 8.987 8.987h-25.598zM30.125 24.987l-8.987-8.987 8.987-8.987v17.973z"></path>
</symbol>
<symbol id="phone" viewBox="0 0 32 32">
<path d="M29.432 21.004c-1.959 0-3.883-0.306-5.706-0.909-0.909-0.31-1.944-0.069-2.537 0.535l-3.598 2.716c-4.173-2.227-6.743-4.797-8.94-8.938l2.636-3.504c0.685-0.684 0.931-1.683 0.636-2.621-0.605-1.832-0.912-3.755-0.912-5.715 0-1.416-1.152-2.568-2.568-2.568h-5.877c-1.416 0-2.568 1.152-2.568 2.568 0 16.229 13.203 29.432 29.432 29.432 1.416 0 2.568-1.152 2.568-2.568v-5.86c-0-1.416-1.152-2.568-2.568-2.568zM30.222 29.432c0 0.436-0.354 0.79-0.79 0.79-15.249 0-27.654-12.405-27.654-27.654 0-0.436 0.354-0.79 0.79-0.79h5.877c0.436 0 0.79 0.354 0.79 0.79 0 2.15 0.338 4.26 0.998 6.26 0.092 0.295 0.017 0.601-0.281 0.912l-3.056 4.047c-0.205 0.272-0.237 0.635-0.083 0.938 2.494 4.902 5.524 7.932 10.461 10.462 0.3 0.157 0.668 0.124 0.941-0.082l4.14-3.136c0.209-0.209 0.523-0.284 0.806-0.188 2.013 0.665 4.123 1.002 6.273 1.002 0.436 0 0.79 0.354 0.79 0.79v5.86z"></path>
</symbol>
</defs>
</svg>
