<svg aria-hidden="true" style="position:absolute;width:0;height:0" xmlns="http://www.w3.org/2000/svg" overflow="hidden"><defs><symbol id="compass" viewBox="0 0 32 32"><path d="M16 0C7.164 0 0 7.164 0 16s7.164 16 16 16 16-7.164 16-16C31.99 7.168 24.832.01 16 0zm0 30.933C7.753 30.933 1.067 24.247 1.067 16S7.753 1.067 16 1.067 30.933 7.753 30.933 16c-.009 8.243-6.69 14.924-14.933 14.933z"/><path d="M16 2.667C8.636 2.667 2.667 8.637 2.667 16S8.637 29.333 16 29.333 29.333 23.363 29.333 16C29.325 8.64 23.36 2.675 16 2.667zm0 25.6C9.225 28.267 3.733 22.775 3.733 16S9.225 3.733 16 3.733 28.267 9.225 28.267 16C28.259 22.772 22.772 28.259 16 28.267z"/><path d="M23.855 8.145a.534.534 0 00-.64-.086l-9.522 5.434c-.006.004-.008.01-.014.014a1.534 1.534 0 00-.171.171c-.003.006-.01.009-.013.014l-5.436 9.522a.533.533 0 00.727.727l9.52-5.434c.006-.004.008-.01.014-.014.061-.052.118-.109.171-.171.003-.006.01-.009.013-.014l5.436-9.52a.533.533 0 00-.086-.643zM9.954 22.046l4.121-7.216 3.099 3.096zm7.971-4.873l-3.093-3.094 7.216-4.121zM7.467 15.467H5.334a.533.533 0 100 1.066h2.133a.533.533 0 100-1.066zm19.2 0h-2.133a.533.533 0 100 1.066h2.133a.533.533 0 100-1.066zM16 8a.533.533 0 00.533-.533V5.334a.533.533 0 10-1.066 0v2.133c0 .295.239.533.533.533zm0 16a.533.533 0 00-.533.533v2.133a.533.533 0 101.066 0v-2.133A.533.533 0 0016 24z"/></symbol><symbol id="worldwide" viewBox="0 0 32 32"><path d="M27.187 27.429C30.291 24.39 32 20.332 32 16s-1.709-8.391-4.813-11.429C24.177 1.624 20.203 0 16 0S7.823 1.624 4.813 4.571C1.709 7.609 0 11.668 0 16c0 4.331 1.709 8.39 4.813 11.429a16.072 16.072 0 003.654 2.685l.003.002.012.005a15.144 15.144 0 001.358.647l.007.003v.001h.001l.003.001c.032.014.072.028.13.048l.035.013h.002c.193.078.375.149.548.213l.056.019c.234.086.457.163.672.229.083.025.168.046.253.066l.136.034h.001l.007.002c.363.102.726.202 1.098.278l.02.005c.07.014.142.023.214.034.102.016.203.035.305.049l.036.005.416.064c.199.033.397.067.6.087a16.134 16.134 0 003.243 0h.001a8.67 8.67 0 00.585-.085l.471-.072c.173-.024.346-.048.514-.081a15.66 15.66 0 001.124-.285l.137-.034c.085-.02.17-.04.251-.066.186-.058.377-.121.58-.194l.032-.011c.217-.078.45-.168.713-.273.04-.014.081-.028.12-.044h.001l.003-.001c.267-.112.534-.236.804-.366l.066-.03c.118-.058.235-.119.352-.18.052-.027.103-.051.156-.079.148-.079.289-.169.435-.253a15.998 15.998 0 002.378-1.663c.29-.246.571-.503.843-.77zm-1.87-.117a14.342 14.342 0 01-1.27.937c-.112.074-.222.149-.336.22-.194.12-.393.234-.593.345-.08.044-.156.093-.237.136l-.002.001-.063.032c-.15.079-.302.155-.457.23-.149.072-.299.138-.448.204-.105.046-.206.094-.315.139l-.105.038-.001.001-.001.001a14.3 14.3 0 01-1.175.424l-.001.001c-.055.017-.111.03-.167.043s-.112.026-.168.042c.025-.026.049-.056.074-.082.072-.076.143-.157.214-.237a8.619 8.619 0 00.432-.525 12.304 12.304 0 00.414-.576 12.078 12.078 0 00.395-.626c.072-.121.142-.246.211-.372.056-.101.111-.201.165-.305.07-.133.137-.271.204-.409.051-.105.102-.209.151-.316.067-.148.133-.3.198-.453.045-.106.091-.21.135-.319.066-.163.129-.332.192-.502.04-.106.08-.21.119-.318l.024-.066c.095.051.193.097.287.15a15.322 15.322 0 011.161.718l.031.02c.299.207.586.427.866.654.078.063.154.128.23.192.085.072.165.149.248.223-.047.042-.092.086-.14.128-.089.077-.181.153-.272.228zm-17.312.971c-.183-.12-.365-.242-.543-.37a15.337 15.337 0 01-.778-.602c-.092-.076-.184-.152-.274-.23-.047-.041-.091-.084-.137-.125.083-.073.162-.15.247-.222.077-.065.154-.131.233-.195a14.573 14.573 0 01.903-.677 15.076 15.076 0 011.154-.713c.094-.053.192-.099.287-.15.008.023.017.043.024.066.04.112.082.219.122.329.061.164.122.328.186.486.047.116.096.228.144.341.062.144.123.289.187.428.053.115.107.226.162.338.064.13.127.26.193.386.057.11.116.217.175.323a13.285 13.285 0 00.795 1.266 14.3 14.3 0 00.425.557c.075.092.151.179.228.266.071.08.142.16.214.236.025.026.049.056.074.082l-.168-.042a2.216 2.216 0 01-.165-.043l-.003-.001c-.196-.06-.4-.13-.615-.209-.177-.065-.36-.135-.562-.216l-.152-.056h-.001c-.239-.1-.478-.21-.715-.326a13.967 13.967 0 01-.473-.238l-.045-.023-.003-.001-.002-.001-.015-.007-.007-.004a14.62 14.62 0 01-.831-.484c-.089-.055-.175-.114-.262-.172zm2.439-21.088c.05-.136.1-.271.152-.402l.114-.283a14.886 14.886 0 01.28-.644c.06-.129.121-.253.183-.377.037-.075.074-.153.113-.226.082-.158.167-.311.252-.461.02-.034.038-.071.058-.104.104-.179.211-.35.32-.516.039-.059.079-.114.118-.172a6.568 6.568 0 01.36-.494 9.772 9.772 0 01.36-.435 9.977 9.977 0 01.365-.386c.079-.077.16-.15.241-.221.044-.039.088-.08.132-.117.106-.088.213-.17.321-.248.02-.015.04-.032.06-.046.128-.089.258-.17.389-.244.038-.021.076-.038.114-.058.094-.049.187-.096.282-.137.048-.02.096-.038.144-.056a3.791 3.791 0 01.412-.132c.04-.01.079-.016.119-.025v7.332l-.053-.002a13.948 13.948 0 01-1.12-.102l-.246-.034c-.376-.055-.751-.12-1.122-.205l-.077-.02a14.876 14.876 0 01-1.051-.291c-.076-.024-.152-.046-.227-.072-.355-.118-.708-.25-1.057-.396l-.075-.033.034-.103c.034-.098.069-.194.105-.291zm6.495-5.716c.087.026.173.057.259.09.048.018.097.036.144.057.095.041.188.088.282.137.038.02.077.037.114.059.13.073.26.154.389.244l.061.046c.107.077.214.159.32.247.045.037.089.079.133.118a6.152 6.152 0 01.606.607 8.256 8.256 0 01.499.615c.075.101.148.207.221.314.039.057.079.112.117.171.109.166.216.338.32.516.02.034.038.071.058.106.085.149.169.301.251.459.039.074.076.152.114.228.062.123.122.247.182.375l.119.265a14.886 14.886 0 01.277.664c.051.13.101.264.15.398.036.098.072.195.106.295l.034.101-.074.032a14.909 14.909 0 01-2.339.761l-.073.019a14.206 14.206 0 01-1.368.239c-.371.048-.745.083-1.12.102l-.054.002V1.414c.04.009.079.015.119.025.051.013.102.026.153.042zm4.615 23.329a18.183 18.183 0 01-.546 1.325c-.059.128-.12.252-.182.376-.038.076-.075.154-.114.228-.082.157-.166.309-.251.458-.02.034-.038.072-.058.106-.105.179-.211.351-.32.517-.038.059-.078.113-.117.17a9.724 9.724 0 01-.361.496 8.214 8.214 0 01-.58.672c-.048.05-.096.1-.145.148-.08.078-.16.151-.241.222-.044.039-.088.08-.133.117a5.931 5.931 0 01-.322.249l-.058.044c-.128.089-.258.17-.389.244-.037.021-.075.038-.113.058-.094.05-.189.097-.284.138a3.816 3.816 0 01-.555.188c-.04.01-.079.016-.119.025v-7.332a14.327 14.327 0 011.173.103l.247.034c.376.055.751.12 1.122.205l.073.019c.355.083.707.183 1.056.293l.222.07c.357.119.71.251 1.06.398l.074.032-.033.1c-.035.101-.071.199-.107.297zm-6.34 5.755a3.84 3.84 0 01-.413-.132c-.048-.018-.095-.035-.143-.056a4.355 4.355 0 01-.284-.138c-.037-.02-.075-.036-.112-.058a4.397 4.397 0 01-.389-.244l-.058-.044a5.583 5.583 0 01-.323-.249c-.044-.037-.088-.078-.132-.117a7.092 7.092 0 01-.242-.223 7.201 7.201 0 01-.511-.555 7.246 7.246 0 01-.213-.265c-.046-.059-.093-.118-.138-.18a8.724 8.724 0 01-.221-.315c-.039-.057-.079-.112-.118-.171a11.988 11.988 0 01-.32-.516l-.058-.104c-.085-.15-.17-.302-.252-.46l-.113-.226a14.699 14.699 0 01-.183-.377l-.119-.265a16.514 16.514 0 01-.428-1.063 19.967 19.967 0 01-.106-.293l-.034-.102.075-.033a15.01 15.01 0 011.057-.397c.075-.025.151-.048.226-.071.348-.11.698-.209 1.051-.292l.077-.02c.371-.085.745-.15 1.121-.204l.248-.035a14.39 14.39 0 011.117-.102l.055-.001v7.332c-.04-.008-.08-.015-.119-.025zM9.602 21.83a25.526 25.526 0 01-.277-1.534c-.013-.087-.032-.17-.044-.257a28.262 28.262 0 01-.196-1.849c-.014-.188-.018-.379-.029-.569a30.145 30.145 0 01-.033-.955h6.31v5.251c-.027.001-.053.006-.08.007-.402.019-.803.054-1.201.104-.088.011-.176.024-.265.037-.383.054-.763.119-1.141.202-.03.007-.061.011-.091.018a15.38 15.38 0 00-1.186.32c-.088.027-.177.054-.264.083a16.583 16.583 0 00-1.177.431c-.066-.241-.133-.48-.192-.727-.045-.187-.093-.372-.133-.563zm-.516-8.02c.047-.624.11-1.243.196-1.85.012-.085.03-.167.043-.252.079-.522.171-1.036.278-1.539.04-.19.088-.374.132-.561.059-.248.126-.488.192-.729l.019.007a16.619 16.619 0 001.422.508c.393.121.788.231 1.187.32.031.007.063.012.094.018.377.082.758.147 1.14.201.088.013.175.026.263.037.398.05.798.085 1.201.104.027.001.053.006.08.007v5.252h-6.31c.007-.32.016-.638.034-.955.01-.189.015-.38.029-.568zm8.862-3.839c.088-.011.175-.024.263-.037.382-.054.762-.119 1.139-.201l.095-.019a16.339 16.339 0 001.455-.405 16.21 16.21 0 001.172-.429c.065.24.132.478.191.723.045.189.093.375.134.568.107.502.199 1.014.277 1.534.013.086.031.169.043.255.086.607.149 1.225.196 1.849.014.188.018.379.029.568.017.317.026.636.033.955h-6.31V10.08c.027-.001.054-.006.08-.007.403-.019.803-.054 1.201-.104zm4.966 8.219c-.047.624-.11 1.242-.196 1.848-.013.088-.031.172-.044.26a25.25 25.25 0 01-.277 1.53c-.041.193-.089.38-.135.569-.058.245-.125.483-.19.722l-.027-.01a16.21 16.21 0 00-1.145-.419c-.091-.03-.183-.058-.274-.087-.391-.12-.784-.229-1.181-.318l-.096-.019a15.656 15.656 0 00-1.138-.201c-.088-.013-.175-.026-.263-.037-.398-.05-.799-.085-1.201-.104-.027-.001-.053-.006-.08-.007v-5.251h6.31c-.007.319-.016.638-.033.955-.011.189-.015.381-.029.569zm3.787 7.83c-.105-.095-.217-.182-.325-.273-.097-.082-.193-.165-.291-.245a15.612 15.612 0 00-.846-.639c-.04-.028-.077-.058-.117-.086-.333-.23-.678-.445-1.03-.651-.096-.056-.194-.107-.291-.162-.161-.09-.319-.184-.484-.269.013-.045.021-.093.034-.137.129-.469.247-.947.352-1.436.018-.084.034-.169.051-.253.105-.515.199-1.036.276-1.568l.002-.012c.077-.535.135-1.08.183-1.628.008-.09.017-.179.024-.27.041-.527.068-1.058.082-1.592.001-.044.006-.087.007-.132h6.326a14.531 14.531 0 01-3.951 9.354zm-2.375-10.687c-.001-.044-.006-.087-.007-.132a30.986 30.986 0 00-.082-1.593c-.007-.09-.016-.178-.024-.267a29.705 29.705 0 00-.183-1.632v-.001a27.29 27.29 0 00-.279-1.586c-.016-.079-.031-.158-.048-.236a25.451 25.451 0 00-.357-1.458c-.011-.04-.018-.083-.03-.122.161-.083.315-.175.473-.262.102-.057.206-.111.307-.17.351-.205.695-.42 1.027-.649.038-.026.073-.055.11-.081.293-.206.578-.422.855-.646.097-.078.19-.159.285-.239.109-.093.223-.181.329-.277a14.53 14.53 0 013.951 9.354zm1.408-10.294c-.086.076-.168.156-.256.23-.075.064-.15.128-.227.19-.28.227-.567.447-.865.653l-.049.032a14.903 14.903 0 01-1.151.71c-.092.051-.188.097-.281.147-.008-.022-.017-.043-.024-.066-.04-.114-.083-.223-.125-.334-.061-.163-.121-.326-.185-.483-.047-.116-.096-.228-.144-.341a12.716 12.716 0 00-.348-.764 16.314 16.314 0 00-.198-.397c-.056-.107-.113-.21-.169-.313a14.187 14.187 0 00-.388-.66 10.393 10.393 0 00-.408-.609 9.536 9.536 0 00-.427-.558 9.287 9.287 0 00-.237-.277c-.069-.077-.137-.154-.207-.228-.03-.031-.058-.066-.088-.097a14.587 14.587 0 015.779 3.166zM11.957 1.97c-.072.075-.142.154-.212.233a9.927 9.927 0 00-.855 1.112c-.069.102-.136.207-.204.314-.065.104-.13.208-.194.316-.066.112-.13.227-.195.343-.061.111-.122.221-.182.335-.064.123-.126.25-.188.378-.056.115-.112.229-.167.348a14.81 14.81 0 00-.184.421c-.05.116-.1.231-.148.35-.063.156-.123.318-.183.48-.042.112-.085.222-.126.337l-.024.065c-.096-.051-.195-.098-.289-.151a14.958 14.958 0 01-1.156-.714l-.033-.022a14.686 14.686 0 01-.867-.655c-.077-.062-.152-.126-.227-.189-.088-.074-.17-.154-.256-.23a14.594 14.594 0 015.778-3.166c-.03.03-.058.065-.088.097zM5.3 5.98c.105.094.216.181.324.272.098.083.195.167.295.248.269.218.546.428.831.628.045.032.087.066.132.097.331.228.674.442 1.024.647.099.058.202.112.303.168.159.088.314.181.476.264-.011.04-.019.083-.03.123-.132.476-.251.961-.357 1.457-.017.079-.032.159-.048.238a27.953 27.953 0 00-.278 1.58l-.001.009a29.523 29.523 0 00-.183 1.627c-.008.091-.017.181-.024.273a30.888 30.888 0 00-.082 1.589c-.001.045-.006.089-.007.134H1.349A14.526 14.526 0 015.3 5.98zm2.374 10.687c.001.045.006.089.007.134.014.533.041 1.063.082 1.589l.024.273c.048.548.106 1.092.183 1.628l.001.008c.077.536.173 1.062.278 1.58.016.079.031.159.048.237.106.496.226.982.357 1.458.011.04.019.082.03.122-.162.083-.318.176-.476.264-.101.056-.203.11-.303.168-.35.205-.693.419-1.024.647-.045.031-.087.065-.131.097-.285.201-.561.41-.831.628-.101.082-.199.167-.298.251-.107.091-.217.177-.321.27a14.521 14.521 0 01-3.951-9.354z"/></symbol><symbol id="settings" viewBox="0 0 32 32"><path d="M17.004 32h-2.008a2.95 2.95 0 01-2.946-2.946v-.679a12.913 12.913 0 01-2.006-.833l-.482.482a2.947 2.947 0 01-4.167 0l-1.419-1.419a2.947 2.947 0 010-4.167l.481-.481a12.913 12.913 0 01-.833-2.006h-.679a2.95 2.95 0 01-2.946-2.946v-2.008a2.95 2.95 0 012.946-2.946h.679c.221-.691.499-1.361.833-2.006l-.482-.481a2.947 2.947 0 010-4.167l1.42-1.42a2.947 2.947 0 014.167 0l.481.481a13.053 13.053 0 012.006-.833v-.679A2.95 2.95 0 0114.995 0h2.008a2.95 2.95 0 012.946 2.946v.679c.691.221 1.361.499 2.006.833l.482-.482a2.947 2.947 0 014.167 0l1.419 1.419a2.947 2.947 0 010 4.167l-.481.481c.334.645.612 1.315.833 2.006h.679A2.95 2.95 0 0132 14.995v2.008a2.95 2.95 0 01-2.946 2.946h-.679a12.913 12.913 0 01-.833 2.006l.482.482a2.947 2.947 0 010 4.167l-1.42 1.419a2.945 2.945 0 01-4.166 0l-.481-.481c-.645.334-1.316.612-2.006.833v.679A2.95 2.95 0 0117.005 32zm-6.647-6.427c.895.53 1.859.93 2.864 1.189.414.107.703.48.703.908v1.384c0 .59.48 1.071 1.071 1.071h2.008c.59 0 1.071-.48 1.071-1.071V27.67c0-.428.289-.801.703-.908a11.05 11.05 0 002.864-1.189.937.937 0 011.14.144l.98.981a1.07 1.07 0 001.514 0l1.42-1.42a1.07 1.07 0 000-1.514l-.981-.981a.937.937 0 01-.144-1.14c.53-.895.93-1.859 1.189-2.864a.937.937 0 01.908-.703h1.384c.59 0 1.071-.48 1.071-1.071v-2.008c0-.59-.48-1.071-1.071-1.071h-1.384a.937.937 0 01-.908-.703 11.05 11.05 0 00-1.189-2.864.937.937 0 01.144-1.14l.981-.981a1.07 1.07 0 000-1.514l-1.42-1.42a1.07 1.07 0 00-1.514 0l-.981.981a.937.937 0 01-1.14.144c-.895-.53-1.859-.93-2.864-1.189a.937.937 0 01-.703-.908V2.948c0-.59-.48-1.071-1.071-1.071h-2.008c-.59 0-1.071.48-1.071 1.071v1.384a.937.937 0 01-.703.908 11.05 11.05 0 00-2.864 1.189.937.937 0 01-1.14-.144l-.98-.981a1.07 1.07 0 00-1.514 0l-1.42 1.42a1.07 1.07 0 000 1.514l.981.981a.937.937 0 01.144 1.14c-.53.895-.93 1.859-1.189 2.864a.937.937 0 01-.908.703H2.946c-.59 0-1.071.48-1.071 1.071v2.008c0 .59.48 1.071 1.071 1.071H4.33c.428 0 .801.289.908.703a11.015 11.015 0 001.189 2.864.937.937 0 01-.144 1.14l-.981.981a1.07 1.07 0 000 1.514l1.42 1.42a1.07 1.07 0 001.514 0l.981-.981c.223-.223.687-.412 1.14-.144z"/><path d="M16 22.962c-3.839 0-6.963-3.123-6.963-6.963S12.16 9.036 16 9.036s6.962 3.123 6.962 6.963-3.123 6.963-6.963 6.963zm0-12.05c-2.805 0-5.088 2.282-5.088 5.088s2.282 5.087 5.088 5.087 5.087-2.282 5.087-5.088-2.282-5.088-5.088-5.088z"/></symbol><symbol id="money" viewBox="0 0 32 32"><path d="M22.848 22.233h-9.187a.469.469 0 000 .938h9.187a3.285 3.285 0 003.282-3.282v-7.04a3.285 3.285 0 00-3.282-3.282h-2.662l-6.05-3.088a1.23 1.23 0 00-1.653.536L11.18 9.568H9.444c-.603 0-1.094.491-1.094 1.094v11.416c0 .603.491 1.094 1.094 1.094h2.155a.469.469 0 000-.938H9.444a.156.156 0 01-.156-.156V10.662c0-.086.07-.156.156-.156h13.404a2.347 2.347 0 012.344 2.344v1.524h-3.735a2.171 2.171 0 00-2.169 2.169v.625c0 1.196.973 2.169 2.169 2.169h3.735v.553a2.347 2.347 0 01-2.344 2.345zm-9.53-14.792a.292.292 0 01.392-.127l4.414 2.253h-5.891zm8.139 10.957a1.232 1.232 0 01-1.231-1.231v-.625c0-.679.552-1.231 1.231-1.231h3.735v3.088z"/><path d="M30.871 10.293a14.894 14.894 0 00-3.221-4.845 15.285 15.285 0 00-1.072-.981.47.47 0 00-.599.721c.347.289.686.599 1.006.921A13.95 13.95 0 0131.062 16c0 3.75-1.46 7.275-4.111 9.926s-6.176 4.111-9.926 4.111a13.91 13.91 0 01-8.174-2.624l.554-.72a13.015 13.015 0 007.62 2.436c3.508 0 6.807-1.371 9.291-3.861s3.847-5.793 3.838-9.301c-.018-7.203-5.893-13.078-13.096-13.096h-.034c-2.094 0-4.098.481-5.954 1.43a13.28 13.28 0 00-4.557 3.842.469.469 0 00.75.562 12.258 12.258 0 019.763-4.897h.03c6.689.017 12.144 5.472 12.161 12.161.008 3.257-1.258 6.324-3.564 8.637s-5.371 3.586-8.627 3.586a12.09 12.09 0 01-7.241-2.382.716.716 0 00-.99.14l-.825 1.073a.715.715 0 00.142 1.011 14.845 14.845 0 008.914 2.941c4 0 7.761-1.558 10.589-4.386S32.001 20 32.001 16c0-1.97-.38-3.89-1.129-5.707z"/><path d="M6.135 13.734a.649.649 0 00-.895-.229l-.17.101a12.055 12.055 0 011.075-3.102.469.469 0 10-.836-.424 13.017 13.017 0 00-1.323 4.383.47.47 0 00.705.458l.783-.464.463.781-2.677 1.587-2.205-2 .61-.672.629.571a.468.468 0 00.781-.296 13.854 13.854 0 014.024-8.352 13.944 13.944 0 019.877-4.111h.048c2.567 0 5.069.692 7.24 2.004a.469.469 0 10.485-.803 14.927 14.927 0 00-7.725-2.139h-.051c-1.97.007-3.889.393-5.703 1.148S7.829 4.02 6.436 5.413c-2.218 2.218-3.647 4.976-4.168 8.022l-.184-.167a.656.656 0 00-.923.045l-.992 1.094a.652.652 0 00.045.923l2.537 2.302a.714.714 0 00.845.085l3.063-1.815a.654.654 0 00.229-.895zm16.437 3.115a.79.79 0 11-1.582 0 .79.79 0 011.582 0z"/></symbol><symbol id="input" viewBox="0 0 32 32"><path d="M13.822 13.451L3.934 6.434c-1.274-.957-2.231-.641-2.66-.422C.739 6.328 0 6.969 0 8.567v14.885c0 1.703.852 2.336 1.274 2.555.211.105.535.211.957.211.535 0 1.063-.105 1.703-.852l9.888-7.016c.852-.641 1.379-1.492 1.379-2.45s-.527-1.809-1.379-2.45zm-1.168 3.618l-9.888 7.016-.422.211c0-.105-.105-.316-.105-.641V8.77c0-.422.105-.641.105-.641s.211 0 .316.422l9.888 7.016c.316.211.535.535.535.746-.008.333-.114.544-.43.755zm17.967-3.618L20.522 6.434c-.957-.641-2.02-.746-2.977-.316-.852.422-1.379 1.379-1.379 2.45v14.885c0 1.063.535 2.02 1.379 2.45.316.211.746.316 1.168.316.641 0 1.274-.105 1.914-.746l9.993-7.016c.852-.641 1.379-1.598 1.379-2.555.008-.957-.527-1.809-1.379-2.45zm-1.379 3.407l-9.993 7.017c-.316.316-.641.316-.746.211-.211-.105-.211-.422-.211-.535V8.666c0-.105 0-.422.211-.535h.211c.211 0 .422 0 .535.211l10.099 7.016c.211.105.422.316.422.641s-.211.649-.527.86z"/></symbol><symbol id="heart" viewBox="0 0 32 32"><path d="M29.665 4.642c-1.578-1.791-3.768-2.777-6.165-2.777-3.372 0-5.506 2.014-6.703 3.703-.311.438-.575.878-.797 1.292a12.265 12.265 0 00-.797-1.292C14.006 3.879 11.871 1.865 8.5 1.865c-2.397 0-4.587.986-6.165 2.777C.829 6.35 0 8.638 0 11.084c0 2.663 1.04 5.139 3.272 7.794 1.995 2.372 4.865 4.818 8.188 7.65 1.238 1.055 2.519 2.146 3.882 3.339l.041.036a.934.934 0 001.234 0l.041-.036c1.363-1.193 2.644-2.284 3.882-3.339 3.323-2.832 6.193-5.277 8.188-7.65C30.96 16.223 32 13.747 32 11.084c0-2.446-.829-4.734-2.335-6.443zm-10.34 20.459c-1.067.91-2.166 1.846-3.325 2.853-1.158-1.007-2.257-1.943-3.325-2.853-6.504-5.542-10.8-9.203-10.8-14.016 0-1.989.663-3.837 1.866-5.203A6.258 6.258 0 018.5 3.74c2.571 0 4.232 1.584 5.174 2.912a11.125 11.125 0 011.435 2.854.938.938 0 001.782 0c.15-.461.591-1.662 1.435-2.854.941-1.328 2.603-2.912 5.174-2.912 1.851 0 3.541.761 4.759 2.142 1.204 1.366 1.866 3.213 1.866 5.203 0 4.813-4.297 8.474-10.8 14.016z"/></symbol><symbol id="clock" viewBox="0 0 32 32"><path d="M16 0C7.178 0 0 7.178 0 16s7.178 16 16 16 16-7.178 16-16S24.822 0 16 0zm0 30.667C7.913 30.667 1.333 24.088 1.333 16S7.912 1.333 16 1.333 30.667 7.912 30.667 16 24.088 30.667 16 30.667z"/><path d="M17.268 16.325c.028-.107.066-.21.066-.325 0-.487-.276-.896-.667-1.128V4.667a.666.666 0 10-1.334 0v10.205c-.391.233-.667.641-.667 1.128 0 .735.598 1.333 1.333 1.333.115 0 .218-.038.325-.066l5.204 5.204a.665.665 0 00.942 0 .668.668 0 000-.943l-5.204-5.204z"/></symbol><symbol id="shopping-cart" viewBox="0 0 32 32"><path d="M29.658 2.909H5.818v.209L5.52 2.095A2.923 2.923 0 002.727 0h-2a.726.726 0 100 1.454h2c.643 0 1.217.43 1.396 1.048L8.65 18.023l-2.32 2.899a2.344 2.344 0 001.829 3.805h20.203a.726.726 0 100-1.454H8.159a.89.89 0 01-.693-1.443l2.337-2.921h14.265a2.924 2.924 0 002.633-1.67l5.075-10.785c.146-.31.222-.655.222-.996v-.206a2.344 2.344 0 00-2.342-2.342zm.887 2.548c0 .13-.029.261-.085.378l-5.075 10.784a1.462 1.462 0 01-1.317.835H9.998L6.18 4.363h23.476a.89.89 0 01.888.888v.206zM8.727 26.182c-1.604 0-2.909 1.305-2.909 2.909S7.123 32 8.727 32s2.909-1.305 2.909-2.909-1.305-2.909-2.909-2.909zm0 4.363c-.802 0-1.455-.653-1.455-1.455s.653-1.455 1.455-1.455 1.455.653 1.455 1.455-.653 1.455-1.455 1.455zm17.455-4.363c-1.604 0-2.909 1.305-2.909 2.909S24.578 32 26.182 32s2.909-1.305 2.909-2.909-1.305-2.909-2.909-2.909zm0 4.363c-.802 0-1.455-.653-1.455-1.455s.653-1.455 1.455-1.455 1.455.653 1.455 1.455-.653 1.455-1.455 1.455z"/></symbol><symbol id="change" viewBox="0 0 32 32"><path d="M10.948 11.545l1.482 2.965 1.491-2.982-.588-1.176c-1.109-2.201-3.351-3.685-5.94-3.685H0v2.667h7.383c1.553 0 2.899.89 3.554 2.189l.01.023zm16.662 7.512l-1.886 1.886 1.724 1.724H21.95a3.978 3.978 0 01-3.554-2.189l-.01-.023-1.482-2.965-1.491 2.982.588 1.176c1.109 2.201 3.351 3.685 5.94 3.685h5.508l-1.724 1.724 1.886 1.886 4-4a1.331 1.331 0 000-1.886z"/><path d="M31.61 7.057l-4-4-1.886 1.886 1.724 1.724H21.94a6.631 6.631 0 00-5.923 3.647l-.017.038-5.052 10.103a3.984 3.984 0 01-3.564 2.211H0v2.667h7.392a6.631 6.631 0 005.923-3.647l.017-.038 5.052-10.104a3.984 3.984 0 013.564-2.211h5.498l-1.724 1.724 1.886 1.886 4-4a1.331 1.331 0 000-1.886z"/></symbol><symbol id="mail" viewBox="0 0 32 32"><path d="M29.188 3.813H2.813A2.818 2.818 0 000 6.626v18.75a2.818 2.818 0 002.813 2.813h26.375a2.818 2.818 0 002.813-2.813V6.626a2.818 2.818 0 00-2.813-2.813zm-.389 1.875L16.06 18.428 3.21 5.688h25.589zM1.875 24.987V7.005l9.03 8.953-9.03 9.03zm1.326 1.326l9.036-9.036 3.166 3.139a.938.938 0 001.323-.003l3.087-3.087 8.987 8.987H3.202zm26.924-1.326L21.138 16l8.987-8.987v17.973z"/></symbol><symbol id="phone" viewBox="0 0 32 32"><path d="M29.432 21.004c-1.959 0-3.883-.306-5.706-.909-.909-.31-1.944-.069-2.537.535l-3.598 2.716c-4.173-2.227-6.743-4.797-8.94-8.938l2.636-3.504a2.585 2.585 0 00.636-2.621 18.192 18.192 0 01-.912-5.715A2.57 2.57 0 008.443 0H2.566A2.57 2.57 0 00-.002 2.568C-.002 18.797 13.201 32 29.43 32a2.57 2.57 0 002.568-2.568v-5.86a2.57 2.57 0 00-2.568-2.568zm.79 8.428a.79.79 0 01-.79.79c-15.249 0-27.654-12.405-27.654-27.654a.79.79 0 01.79-.79h5.877a.79.79 0 01.79.79c0 2.15.338 4.26.998 6.26.092.295.017.601-.281.912l-3.056 4.047a.888.888 0 00-.083.938c2.494 4.902 5.524 7.932 10.461 10.462.3.157.668.124.941-.082l4.14-3.136a.786.786 0 01.806-.188 19.959 19.959 0 006.273 1.002.79.79 0 01.79.79v5.86z"/></symbol></defs></svg>